<svg xmlns="http://www.w3.org/2000/svg" xml:space="preserve" version="1.1" viewBox="0 0 15.36 15.36">
  <style id="style101" type="text/css">
    .st2{fill:none;stroke:#b3b3b3;stroke-miterlimit:10}.st6{fill:#def6fc}.st8{fill:#fff}.st11{fill:#133260}
  </style>
  <g id="Layer_32" transform="matrix(.03 0 0 .03 0 .049)">
    <g id="g152">
      <g id="g140">
        <path id="rect120" fill="#7180bc" d="M145.8 304.4h30.5v93h-30.5z" transform="rotate(45.001 161.084 350.92)"/>
        <g id="g130">
          <circle id="circle122" cx="314.5" cy="197.5" r="193" fill="#589fff"/>
          <path id="path124" fill="#9bc5ff" d="M203.3 334c-75.4-75.4-75.4-197.6 0-273C237.7 26.5 282 7.8 327.1 4.9 273.6 1.4 218.9 20.1 178 61c-75.4 75.4-75.4 197.6 0 273 40.9 40.9 95.6 59.6 149.1 56.1-45.1-2.9-89.4-21.6-123.8-56.1Z"/>
          <circle id="circle126" cx="314.5" cy="197.5" r="155.8" class="st6"/>
          <path id="path128" d="M229.6 307.7c-60.9-60.9-60.9-159.5 0-220.4 27.2-27.2 62-42.3 97.6-45.1-44-3.6-89.2 11.5-122.8 45.1-60.9 60.9-60.9 159.5 0 220.4 33.6 33.6 78.8 48.7 122.8 45.1-35.6-2.9-70.4-17.9-97.6-45.1z" class="st8"/>
        </g>
        <path id="path132" fill="#f9c04a" d="M28.4 502.7 9.3 483.6C3 477.3 3 467 9.3 460.7L110 360.1c6.3-6.3 16.6-6.3 22.9 0l19.1 19.1c6.3 6.3 6.3 16.6 0 22.9L51.2 502.7c-6.3 6.3-16.5 6.3-22.8 0z"/>
        <path id="path134" fill="#ffda9f" d="m15.8 490.2 123.6-123.6-6.5-6.5c-6.3-6.3-16.6-6.3-22.9 0L9.3 460.8c-6.3 6.3-6.3 16.6 0 22.9z"/>
        <path id="rect136" d="M98.9 369.4H127v59.3H98.9z" class="st6" transform="rotate(-45.001 112.965 399.033)"/>
        <path id="rect138" d="M86.9 374.3H115v25.4H86.9z" class="st8" transform="rotate(-45.001 100.971 387.04)"/>
      </g>
      <g id="g150">
        <path id="path142" d="M314.5 78.4c-11.7 0-23.3 1.7-34.4 5-2.4.7-3.8 3.3-3 5.7.6 2 2.4 3.2 4.4 3.2.4 0 .9-.1 1.3-.2 10.3-3.1 21-4.7 31.8-4.7 2.5 0 4.6-2 4.6-4.6-.1-2.3-2.2-4.4-4.7-4.4z" class="st11"/>
        <path id="path144" d="M242.2 102.9c-29.7 22.7-46.7 57.2-46.7 94.6 0 2.5 2 4.6 4.6 4.6 2.6 0 4.6-2 4.6-4.6 0-34.5 15.7-66.3 43.1-87.3 2-1.5 2.4-4.4.8-6.4-1.6-2-4.4-2.4-6.4-.9z" class="st11"/>
        <path id="path146" d="M454.2 57.8c-77-77-202.4-77-279.4 0C102.5 130.1 98 245 161.5 322.5l-30.6 30.6c-2.9-1.5-6.1-2.3-9.5-2.3-5.5 0-10.7 2.2-14.7 6.1l-8 8-19.9 19.9-72.7 72.7c-3.9 3.9-6.1 9.1-6.1 14.7 0 5.5 2.2 10.7 6.1 14.7L25.2 506c3.9 3.9 9.1 6.1 14.7 6.1s10.7-2.2 14.7-6.1l72.8-72.8 19.9-19.9 8-8c3.9-3.9 6.1-9.1 6.1-14.7 0-3.4-.8-6.6-2.3-9.5l30.6-30.6c36.2 29.6 80.6 44.5 125 44.5 50.6 0 101.2-19.3 139.7-57.8 76.9-77 76.9-202.4-.2-279.4zM48 499.5c-4.5 4.5-11.9 4.5-16.4 0l-19.1-19.1c-4.5-4.5-4.5-11.9 0-16.4L82 394.4l35.5 35.5zm76-76L88.5 388l13.5-13.5 35.5 35.5Zm24.7-24.7-4.8 4.8-35.5-35.5 4.8-4.8c2.2-2.2 5.1-3.4 8.2-3.4 3.1 0 6 1.2 8.2 3.4l19.1 19.1c.3.3.6.6.9 1 1.6 2.1 2.5 4.6 2.5 7.2 0 3.1-1.2 6-3.4 8.2zm4.5-24.8L138 358.8l29.4-29.4c2.4 2.6 4.8 5.2 7.4 7.8 2.6 2.6 5.1 5 7.8 7.4zm294.6-43.2c-73.5 73.5-193.1 73.5-266.5 0-73.5-73.5-73.5-193.1 0-266.5 36.7-36.7 85-55.1 133.3-55.1 48.3 0 96.4 18.3 133.2 55 73.5 73.5 73.5 193.1 0 266.6z" class="st11"/>
        <path id="path148" d="M427.9 84.1c-62.5-62.5-164.3-62.5-226.8 0s-62.5 164.3 0 226.8c31.3 31.3 72.3 46.9 113.4 46.9 41.1 0 82.1-15.6 113.4-46.9 62.5-62.5 62.5-164.3 0-226.8zm-6.4 220.4c-59 59-154.9 59-213.9 0s-59-154.9 0-213.9c29.5-29.5 68.2-44.2 107-44.2S392 61 421.5 90.5c58.9 59 58.9 155 0 214z" class="st11"/>
      </g>
    </g>
  </g>
</svg>

